<?xml version="1.0" standalone="no"?>
<!DOCTYPE svg PUBLIC "-//W3C//DTD SVG 20010904//EN"
 "http://www.w3.org/TR/2001/REC-SVG-20010904/DTD/svg10.dtd">
<svg version="1.0" xmlns="http://www.w3.org/2000/svg"
 width="512" height="512" viewBox="0 0 587.977391 932.695899"
 preserveAspectRatio="xMidYMid meet">
<metadata>Created by Svg.la</metadata>
<g transform="translate(-133.914674,986.834161) scale(0.100000,-0.100000)"
fill="#000000" stroke="none">
<path d="M5985 9850 c-124 -25 -225 -62 -320 -117 -44 -26 -109 -63 -145 -83
-99 -55 -125 -77 -211 -180 -86 -102 -208 -305 -240 -398 -28 -80 -59 -211
-59 -250 0 -18 -6 -35 -12 -37 -7 -2 -58 -9 -113 -15 -55 -5 -140 -19 -190
-30 -49 -11 -137 -29 -193 -41 -121 -24 -234 -73 -279 -120 -29 -31 -33 -43
-44 -131 -7 -59 -9 -165 -5 -275 18 -537 18 -650 2 -730 -36 -181 -66 -626
-62 -930 3 -248 3 -252 -18 -257 -12 -2 -75 -8 -141 -11 -103 -6 -131 -4 -201
14 -244 63 -474 246 -570 455 -93 203 -83 469 29 791 31 88 81 230 110 315 72
206 93 300 78 350 -6 21 -26 53 -43 72 -18 18 -37 46 -43 63 -10 30 -52 58
-125 84 -19 7 -91 16 -160 21 -69 5 -163 16 -210 24 -47 9 -112 16 -145 16
-33 0 -112 9 -175 20 -84 15 -157 21 -271 20 -85 0 -179 4 -209 10 -29 5 -85
12 -124 15 -39 3 -96 10 -126 15 -82 14 -308 15 -357 1 -66 -18 -93 -92 -59
-159 7 -15 17 -54 20 -87 4 -33 14 -98 21 -145 7 -47 16 -137 20 -200 3 -63
15 -152 25 -197 11 -45 24 -121 30 -170 17 -140 60 -435 69 -468 5 -16 26 -75
49 -130 22 -55 63 -174 92 -265 64 -205 163 -413 249 -525 34 -44 106 -145
160 -225 54 -80 106 -152 116 -160 10 -8 55 -64 100 -125 92 -123 115 -146
230 -232 102 -77 243 -148 325 -164 36 -7 106 -32 157 -56 101 -47 275 -115
338 -132 22 -5 65 -13 95 -15 30 -3 107 -11 170 -17 134 -13 267 -6 395 22 49
10 93 19 98 19 4 0 6 -53 4 -117 -3 -65 -7 -206 -9 -313 -11 -465 -29 -993
-39 -1095 -5 -60 -16 -234 -24 -385 -8 -151 -19 -331 -25 -400 -10 -122 -7
-188 11 -222 5 -9 5 -77 -1 -160 -5 -79 -12 -278 -15 -443 -6 -328 -14 -408
-52 -565 -29 -118 -28 -200 3 -328 15 -65 16 -86 6 -183 -8 -78 -8 -115 -1
-127 21 -33 62 -55 108 -58 108 -7 211 -24 281 -49 86 -29 315 -68 505 -85 72
-6 171 -17 220 -23 116 -16 225 2 437 70 59 18 142 38 185 43 43 5 98 12 123
15 25 3 68 2 95 -4 31 -6 54 -6 60 0 5 5 24 9 41 9 44 0 78 42 70 85 -5 25 -1
36 20 54 22 19 25 29 21 58 -5 27 -1 42 13 61 25 31 25 53 1 100 -10 20 -29
82 -41 136 -12 55 -29 115 -37 134 -9 23 -13 50 -9 76 8 55 10 471 2 484 -5 9
-15 188 -31 602 -3 74 -12 203 -21 285 -8 83 -19 236 -24 340 -6 105 -14 222
-20 260 -5 39 -9 113 -9 165 -1 52 -12 185 -25 295 -33 272 -45 419 -52 620
-3 94 -12 222 -20 286 -15 109 -15 127 5 300 21 195 33 326 52 554 7 84 13
429 14 865 2 399 8 833 13 965 10 238 11 241 57 420 25 99 55 214 65 255 11
41 23 107 26 147 10 107 21 113 120 67 76 -35 85 -37 237 -46 146 -9 164 -8
245 13 52 13 127 42 185 73 85 44 109 62 172 132 85 95 113 158 145 327 24
130 25 170 4 250 -23 90 -55 145 -124 212 -33 33 -69 78 -80 100 -31 64 -145
208 -219 277 -48 46 -81 68 -113 77 -25 7 -80 35 -123 63 -97 63 -132 75 -256
88 -134 13 -196 11 -304 -10z m411 -66 c29 -7 107 -42 175 -78 103 -54 135
-77 188 -133 65 -70 182 -238 208 -302 40 -95 55 -298 28 -389 -18 -60 -136
-241 -191 -294 -22 -20 -66 -53 -99 -73 -55 -32 -65 -35 -111 -29 -33 4 -68 1
-102 -10 -40 -11 -65 -13 -108 -6 -63 10 -82 20 -40 20 15 0 72 11 127 25 248
63 370 137 424 256 36 82 75 240 75 309 0 192 -149 419 -336 513 -81 41 -243
77 -396 89 -137 10 -138 10 -264 -22 -190 -47 -322 -97 -369 -140 -22 -20 -60
-51 -83 -70 -58 -44 -175 -191 -208 -260 -51 -106 -103 -237 -119 -301 -9 -35
-19 -66 -21 -69 -8 -7 -2 211 7 260 16 93 79 221 153 310 44 53 192 182 245
214 31 18 88 51 126 74 45 26 109 51 180 71 61 16 121 34 135 40 35 14 314 11
376 -5z m200 -235 c47 -28 43 -33 -6 -8 -38 20 -48 29 -34 29 4 0 22 -9 40
-21z m-285 -9 c63 -12 229 -74 279 -105 19 -12 53 -38 74 -57 l39 -35 -79 -6
c-104 -8 -151 -23 -187 -58 -25 -25 -29 -35 -24 -65 8 -46 39 -88 78 -104 27
-12 36 -11 66 5 19 11 41 31 49 47 28 55 80 62 155 22 46 -25 79 -70 79 -107
0 -8 7 -32 16 -52 15 -36 14 -42 -6 -109 -37 -117 -97 -198 -177 -239 -103
-54 -293 -83 -427 -67 -50 7 -101 13 -113 13 -12 1 -28 9 -35 19 -26 33 -91
68 -126 68 -23 0 -44 8 -58 21 -19 18 -42 23 -126 30 -57 4 -143 19 -193 33
-68 20 -113 26 -184 26 l-94 0 7 55 c8 75 46 171 111 285 47 82 60 99 103 123
28 15 85 56 128 92 93 77 130 96 283 140 95 28 133 34 212 35 53 0 121 -4 150
-10z m240 -318 c11 -29 -16 -42 -38 -19 -14 13 -14 19 -3 32 16 20 31 15 41
-13z m539 -151 c26 -83 26 -180 -1 -257 -11 -32 -18 -70 -15 -84 8 -41 -84
-170 -168 -239 -113 -91 -164 -112 -324 -132 -83 -10 -111 -10 -197 5 -89 15
-193 51 -182 62 2 3 26 0 53 -6 62 -15 289 -4 362 16 158 44 287 167 393 374
32 63 33 70 37 203 3 76 8 135 13 130 5 -5 17 -37 29 -72z m-1976 -188 c-3
-27 -10 -52 -15 -57 -11 -13 -11 -8 2 54 14 63 22 65 13 3z m628 -218 c37 -13
94 -38 127 -55 55 -27 60 -32 52 -53 -8 -19 -28 -109 -46 -204 -7 -33 6 -51
23 -30 6 6 21 64 34 129 l23 116 26 -21 27 -22 -10 -100 c-10 -115 -16 -144
-52 -241 -57 -158 -106 -582 -106 -924 1 -246 -8 -682 -15 -775 -2 -27 -7
-192 -10 -365 -7 -423 -19 -592 -66 -925 -16 -116 -22 -222 -26 -470 -5 -319
-1 -391 33 -659 14 -110 14 -148 4 -255 -6 -69 -16 -304 -21 -521 -12 -521
-24 -844 -32 -857 -4 -6 -18 -145 -32 -308 -36 -429 -33 -764 11 -1015 18
-104 22 -120 36 -120 11 0 10 9 -16 220 -26 212 -12 920 21 1040 4 15 10 -31
14 -110 9 -185 26 -384 44 -510 8 -58 19 -143 24 -190 11 -106 32 -212 80
-407 l38 -152 -31 -11 c-87 -28 -250 -58 -267 -49 -12 6 -34 6 -61 -1 -71 -16
-64 -24 -99 120 -6 25 -14 155 -19 290 -4 135 -13 337 -20 450 -9 153 -11 440
-5 1140 12 1388 11 1599 -4 1890 -15 284 -10 964 9 1255 6 83 15 290 20 460
12 366 42 889 54 930 2 6 6 -143 10 -330 4 -187 11 -380 16 -430 33 -328 36
-903 6 -1185 -23 -217 -30 -517 -25 -1125 5 -744 3 -1144 -10 -1500 -15 -401
-20 -705 -12 -734 4 -14 11 -26 18 -28 7 -3 12 124 17 434 3 241 10 481 16
533 15 134 19 809 7 1100 -13 332 6 1155 31 1320 14 98 17 186 16 585 -1 315
-5 496 -13 550 -18 112 -27 595 -20 1015 4 289 9 382 27 500 29 196 62 445 62
465 0 11 -7 15 -22 13 -20 -3 -27 -18 -56 -123 -30 -111 -34 -138 -43 -355 -9
-189 -17 -275 -46 -440 -19 -113 -39 -232 -44 -265 -5 -33 -14 -197 -19 -365
-5 -168 -12 -334 -15 -370 -2 -36 -7 -132 -10 -215 -3 -82 -10 -256 -15 -385
-6 -129 -14 -354 -20 -500 -5 -146 -16 -339 -25 -430 -38 -408 -45 -493 -50
-615 -12 -315 -22 -1953 -15 -2710 3 -355 23 -535 56 -502 4 4 1 57 -7 119
-25 200 -16 2651 11 3103 9 163 27 356 34 362 8 8 17 -497 15 -867 -8 -1544 0
-2648 22 -2886 6 -61 20 -152 33 -203 19 -80 20 -91 7 -95 -45 -13 -136 -25
-222 -30 l-95 -6 -22 69 c-55 171 -74 384 -73 851 1 336 20 737 57 1205 11
136 18 449 24 1105 5 503 10 1039 12 1190 2 151 -1 457 -6 680 -5 269 -4 489
3 655 26 611 42 894 52 940 5 28 14 124 19 215 16 286 32 451 81 854 12 97 7
150 -14 143 -17 -5 -72 -396 -92 -652 -9 -115 -22 -237 -30 -270 -8 -34 -19
-117 -25 -185 -6 -69 -15 -172 -21 -230 -18 -186 -33 -941 -30 -1485 8 -1204
-1 -2664 -17 -2925 -21 -350 -32 -503 -45 -640 -7 -83 -12 -319 -12 -615 0
-557 8 -658 67 -843 11 -35 18 -65 15 -68 -4 -5 -157 -24 -193 -24 -29 0 -92
130 -150 310 -84 255 -90 310 -100 845 -6 380 1 570 32 810 9 65 14 151 11
190 -2 38 0 194 4 345 8 246 16 369 50 700 40 404 41 436 41 1330 -1 864 4
1039 32 1235 15 98 69 652 101 1030 9 105 25 255 35 335 24 180 52 555 48 635
-2 45 -7 60 -18 60 -12 0 -17 -29 -27 -144 -7 -80 -22 -217 -33 -305 -18 -153
-24 -226 -51 -651 -6 -99 -17 -225 -24 -280 -8 -55 -21 -183 -30 -285 -9 -102
-22 -230 -30 -285 -7 -55 -19 -163 -26 -240 -11 -114 -14 -131 -19 -90 -3 28
-2 118 1 200 4 83 7 273 8 423 1 302 21 662 52 937 21 196 45 626 35 651 -14
38 -24 -6 -30 -143 -10 -188 -36 -485 -67 -748 -5 -49 -14 -355 -20 -680 -11
-718 -11 -798 1 -831 13 -33 13 -335 0 -534 -5 -85 -16 -261 -25 -390 -8 -129
-21 -329 -29 -445 -8 -115 -17 -338 -21 -495 -3 -157 -8 -343 -10 -415 -2 -71
-7 -321 -10 -555 -4 -234 -11 -488 -17 -565 -14 -185 -19 -1077 -7 -1230 5
-66 17 -158 25 -205 23 -120 89 -330 130 -413 41 -79 36 -81 -55 -17 -52 36
-64 52 -114 149 -31 60 -62 135 -71 167 -32 129 -56 588 -55 1084 0 347 4 480
34 1020 10 167 14 349 11 420 -3 69 -10 312 -15 540 -5 228 -14 443 -20 477
-9 47 -8 99 4 230 21 219 34 1093 16 1093 -8 0 -11 -36 -11 -117 0 -167 -18
-684 -27 -773 -15 -148 -30 426 -27 1030 2 639 15 915 73 1605 11 132 23 274
27 315 3 41 18 171 34 289 18 138 25 222 20 236 -8 21 -5 24 31 33 33 8 41 8
46 -5 16 -41 -9 -363 -57 -743 -11 -85 -24 -252 -31 -370 -19 -373 -9 -2552
12 -2575 5 -5 9 246 10 595 1 686 2 784 13 1360 7 421 21 653 56 970 29 262
42 468 39 629 l-3 145 50 13 c166 43 390 60 724 55 208 -3 230 -5 292 -27z
m-1222 -139 c0 -30 -9 -114 -20 -188 -11 -73 -24 -187 -30 -252 -6 -66 -13
-122 -16 -125 -4 -3 -4 102 -1 234 3 179 9 259 22 313 21 90 45 100 45 18z
m-91 -37 c-33 -155 -41 -310 -55 -1129 -9 -563 -47 -1611 -63 -1765 -13 -122
-13 228 0 540 6 138 12 603 14 1035 2 432 9 848 14 925 6 77 11 211 11 297 l0
157 33 10 c66 19 66 20 46 -70z m-2835 -139 c-13 -39 -26 -93 -30 -121 -4 -27
-9 -48 -11 -45 -3 2 -8 46 -11 97 -7 96 -23 124 -42 74 -32 -85 18 -547 100
-910 16 -71 43 -195 60 -275 45 -208 56 -243 107 -343 149 -297 459 -736 644
-913 53 -51 196 -165 294 -236 117 -84 279 -167 385 -197 152 -43 422 -79 640
-86 189 -5 211 -4 285 15 108 29 110 29 113 0 2 -22 -6 -30 -66 -63 -131 -70
-178 -81 -349 -80 -107 1 -167 6 -200 17 -27 8 -89 22 -139 30 -112 19 -344
78 -416 107 -87 34 -268 128 -342 178 -40 26 -145 122 -243 220 -148 148 -183
189 -230 270 -147 251 -229 391 -264 447 -95 154 -222 433 -264 579 -28 98
-78 352 -100 510 -8 55 -22 150 -30 210 -9 61 -19 212 -22 337 l-6 227 24 5
c38 9 72 13 105 15 l30 1 -22 -70z m631 48 c44 -6 83 -14 88 -18 11 -9 -10
-113 -49 -232 -39 -122 -40 -131 -18 -126 20 4 104 248 104 304 0 60 -10 60
430 20 205 -19 317 -39 370 -67 19 -11 42 -19 50 -19 30 0 40 -23 40 -93 0
-81 -21 -149 -120 -382 -80 -190 -81 -191 -120 -369 -58 -262 -65 -480 -20
-621 41 -130 128 -284 238 -420 46 -58 134 -131 202 -168 59 -32 23 -29 -41 4
-199 100 -312 231 -399 463 -54 144 -69 212 -80 369 -10 142 -3 248 29 402 11
53 15 94 10 100 -16 17 -28 -8 -49 -105 -45 -209 -42 -445 10 -645 37 -143 87
-270 136 -343 19 -30 33 -56 31 -58 -7 -7 -104 103 -144 162 -19 28 -46 85
-60 125 -24 69 -26 88 -29 272 -2 108 -6 202 -9 208 -5 7 -11 6 -21 -2 -11 -9
-14 -45 -14 -168 1 -302 32 -399 190 -573 62 -70 187 -160 211 -153 9 3 43
-13 80 -38 118 -81 204 -116 329 -136 41 -7 96 -19 122 -27 26 -9 86 -19 135
-22 76 -6 85 -9 66 -20 -70 -39 -323 -57 -464 -33 -30 6 -103 17 -163 27 -132
20 -218 51 -310 112 -96 64 -164 135 -225 235 -128 213 -179 436 -168 740 8
233 23 248 30 32 6 -192 22 -285 72 -425 42 -115 122 -265 185 -344 87 -109
245 -242 356 -299 30 -15 33 -15 45 0 12 14 11 18 -5 27 -151 89 -206 134
-333 275 -138 153 -210 304 -258 548 -42 211 -32 489 27 773 30 144 94 354
143 469 28 68 32 101 11 101 -26 0 -113 -203 -166 -388 -24 -83 -31 -97 -47
-94 -16 2 -26 -12 -50 -70 -98 -237 -149 -506 -141 -748 6 -172 29 -271 92
-406 61 -129 109 -195 222 -305 206 -199 299 -245 649 -313 214 -41 445 -23
618 49 39 16 13 -13 -51 -57 -63 -43 -162 -82 -302 -119 -95 -24 -342 15 -519
83 -58 22 -162 63 -231 89 -148 58 -228 107 -306 191 -90 98 -140 173 -209
313 -66 136 -123 310 -153 470 -26 140 -23 406 7 563 16 88 20 127 12 135 -42
42 -87 -413 -62 -633 21 -183 95 -436 174 -595 67 -136 227 -329 334 -403 41
-29 279 -128 352 -147 31 -8 84 -26 119 -40 74 -30 168 -51 295 -65 147 -17
182 -14 319 28 130 40 172 62 264 139 28 23 53 41 55 39 2 -3 2 -75 -1 -162
l-5 -157 -55 -28 c-159 -81 -278 -88 -655 -38 -194 26 -329 71 -579 196 -193
96 -306 163 -340 201 -21 24 -41 28 -51 12 -10 -16 9 -35 94 -94 80 -56 130
-84 251 -140 41 -20 102 -51 135 -71 66 -39 243 -110 310 -125 76 -17 246 -42
350 -51 55 -5 125 -11 156 -15 64 -7 258 26 327 56 l42 19 0 -34 c0 -31 -5
-37 -42 -54 -116 -52 -135 -55 -328 -57 -206 -2 -291 5 -483 42 -190 37 -271
66 -389 138 -327 198 -574 444 -783 779 -44 71 -106 170 -138 220 -69 108
-178 326 -206 412 -11 33 -31 126 -45 206 -15 81 -40 202 -56 269 -46 186 -60
291 -60 445 0 156 8 222 42 373 l23 104 245 -6 c135 -3 281 -11 325 -18z m425
-755 c-7 -37 -25 -117 -41 -178 -68 -268 -79 -436 -40 -668 20 -119 63 -275
92 -329 11 -21 11 -22 -5 -9 -23 19 -85 141 -108 211 -40 123 -51 216 -45 400
6 186 19 265 76 455 33 109 70 200 78 191 3 -3 0 -36 -7 -73z m1620 -1318 c-6
-148 -10 -353 -10 -454 1 -100 -1 -186 -4 -189 -3 -3 -7 98 -7 224 -1 126 -3
256 -5 289 -2 33 3 197 11 363 8 167 16 345 17 395 2 51 4 -9 6 -133 2 -124
-2 -346 -8 -495z m466 -1292 c-7 -403 -23 -802 -40 -988 l-13 -140 -1 320 c0
176 4 379 9 450 5 72 13 229 19 350 11 237 19 335 27 335 3 0 3 -147 -1 -327z
m-1496 253 c213 -47 349 -66 478 -66 135 0 283 20 330 44 78 39 100 24 27 -19
-26 -15 -78 -32 -123 -40 -42 -7 -97 -18 -122 -24 -70 -16 -136 -13 -265 14
-66 14 -146 25 -178 25 -44 0 -79 9 -154 40 -98 41 -129 58 -83 47 14 -4 54
-13 90 -21z m1149 -1201 c6 -269 16 -542 23 -605 8 -85 8 -183 -1 -375 -53
-1234 -30 -1942 71 -2213 13 -35 40 -76 71 -109 53 -57 56 -70 13 -53 -15 5
-46 10 -69 11 -23 0 -50 4 -61 8 -25 10 -82 149 -95 231 -21 138 -33 365 -27
518 27 692 30 2009 6 2387 -7 118 -8 220 0 335 5 91 15 298 20 460 6 162 14
338 18 390 7 102 9 36 31 -985z m-159 0 c1 -321 -28 -834 -57 -995 l-6 -35 -8
40 c-10 50 6 488 25 700 8 88 18 282 23 430 9 341 22 263 23 -140z m1594 -635
c9 -96 26 -229 38 -295 14 -84 23 -192 28 -360 6 -196 12 -255 29 -320 19 -73
21 -96 15 -255 -5 -118 -2 -221 7 -315 15 -162 15 -163 5 -355 l-8 -145 46
-192 c25 -105 46 -198 46 -205 0 -7 -10 -33 -21 -58 l-21 -45 -19 42 c-45 104
-111 409 -124 578 -4 44 -11 98 -15 120 -5 22 -19 144 -31 270 -18 189 -23
327 -28 780 -6 557 -1 927 15 1000 l9 40 6 -55 c3 -30 14 -134 23 -230z
m-1573 -930 c-6 -113 -14 -267 -17 -344 -4 -76 -10 -132 -14 -125 -14 26 -20
393 -10 541 6 81 12 234 14 340 2 106 10 261 17 343 l14 150 3 -350 c2 -192
-1 -442 -7 -555z m-1 -1275 c14 -199 39 -331 79 -420 l31 -67 -31 6 c-39 7
-131 69 -180 119 -21 22 -46 64 -59 98 l-21 59 22 116 c11 63 29 176 39 252
l17 137 2 -221 c1 -173 4 -224 15 -240 24 -32 31 -7 32 109 0 177 15 551 22
567 3 8 9 -68 13 -170 4 -102 13 -257 19 -345z m1054 -555 c-20 -8 -109 -22
-224 -35 -37 -4 -52 -3 -45 4 6 6 66 17 135 24 150 18 161 18 134 7z"/>
<path d="M5130 8603 c0 -32 -5 -98 -10 -148 -5 -49 -14 -153 -20 -230 -13
-171 -32 -324 -70 -560 -37 -227 -86 -626 -100 -815 -11 -148 -12 -299 -10
-1110 2 -407 -6 -925 -16 -1030 -1 -19 -7 -123 -13 -230 -6 -107 -16 -253 -21
-325 -12 -166 -27 -405 -40 -665 -6 -113 -13 -239 -15 -280 -22 -361 -27 -481
-27 -725 -1 -285 14 -735 32 -970 11 -146 28 -235 94 -482 47 -175 63 -223 77
-223 19 0 15 37 -15 137 -100 328 -114 408 -133 798 -22 437 -27 870 -14 1110
6 110 20 371 32 580 11 209 24 423 29 475 5 52 13 187 19 300 6 113 16 275 21
360 24 381 34 779 35 1500 2 737 6 854 35 1105 10 91 14 117 74 515 42 273 52
355 66 530 6 74 15 185 21 245 14 138 10 189 -13 193 -16 3 -18 -5 -18 -55z"/>
<path d="M5413 8592 c-15 -10 -27 -70 -42 -217 -6 -60 -16 -150 -21 -200 -19
-161 -53 -703 -66 -1025 -3 -80 -9 -183 -14 -230 -9 -81 -34 -410 -45 -605 -3
-49 -10 -164 -15 -255 -10 -172 -13 -316 -6 -309 4 4 18 221 32 504 5 111 37
444 54 565 5 36 14 128 20 205 32 437 41 533 59 660 54 381 91 877 68 902 -7
7 -18 9 -24 5z"/>
<path d="M5725 8577 c-2 -6 -14 -58 -26 -115 -18 -80 -20 -105 -10 -115 17
-17 28 3 36 68 3 29 13 74 21 100 7 27 14 51 14 56 0 13 -31 19 -35 6z"/>
<path d="M5776 8145 c-10 -26 -65 -428 -86 -619 -35 -339 -75 -962 -75 -1191
0 -82 3 -100 15 -100 17 0 18 23 39 565 18 485 67 996 127 1328 6 33 -9 46
-20 17z"/>
<path d="M2187 8353 c-3 -5 -8 -24 -12 -43 -6 -32 -66 -253 -115 -425 -66
-234 -77 -624 -24 -880 37 -178 174 -515 209 -515 24 0 18 20 -45 160 -116
254 -154 443 -154 755 0 263 12 333 124 715 58 195 64 240 36 240 -8 0 -17 -3
-19 -7z"/>
<path d="M2037 8309 c-34 -55 -82 -246 -112 -446 -27 -182 -17 -594 16 -655 5
-10 17 -18 25 -18 13 0 15 7 11 33 -3 17 -14 105 -23 195 -16 141 -16 183 -6
318 12 159 41 311 92 483 28 94 27 137 -3 90z"/>
<path d="M2962 8247 c-20 -24 -152 -396 -152 -428 0 -10 6 -19 13 -19 7 0 30
54 56 133 24 72 59 165 77 206 19 41 34 82 34 92 0 24 -15 32 -28 16z"/>
<path d="M3072 8233 c-5 -10 -12 -33 -15 -50 -5 -25 -3 -33 8 -33 15 0 34 36
38 73 3 26 -19 33 -31 10z"/>
</g>
</svg>
